<svg xmlns="http://www.w3.org/2000/svg" width="100" height="100" viewBox="0 0 100 100">
  <g id="Group_4" data-name="Group 4" transform="translate(-181 -2616)">
    <circle id="Ellipse_5" data-name="Ellipse 5" cx="50" cy="50" r="50" transform="translate(181 2616)" fill="#f5eaf8"/>
    <path id="briefcase-solid" d="M45.75,27A6.344,6.344,0,0,0,52,20.75V8.25H36.375V5.8A3.813,3.813,0,0,0,32.547,2H21.453a3.812,3.812,0,0,0-3.828,3.8V8.25H2v12.5A6.344,6.344,0,0,0,8.328,27h6.25V23.75H17.7v8.906a1.563,1.563,0,0,1-3.125,0V30.219H8.344A9.469,9.469,0,0,1,2,27.766V42.531a3.125,3.125,0,0,0,3.125,3.125h43.75A3.125,3.125,0,0,0,52,42.531V27.766a9.375,9.375,0,0,1-6.344,2.453H42.625V27Zm-25-21.2a.7.7,0,0,1,.7-.672H32.547a.7.7,0,0,1,.7.672V8.25H20.75ZM39.5,32.656a1.563,1.563,0,0,1-3.125,0V30.219H20.75V27H36.375V23.75H39.5Z" transform="translate(204 2642.045)" fill="#9e3bbc"/>
  </g>
</svg>
