<svg xmlns="http://www.w3.org/2000/svg" width="100" height="100" viewBox="0 0 100 100">
  <g id="Group_3" data-name="Group 3" transform="translate(-278 -2725)">
    <circle id="Ellipse_3" data-name="Ellipse 3" cx="50" cy="50" r="50" transform="translate(278 2725)" fill="#e8f8ed"/>
    <path id="wrench" d="M49.341,41.355a1.907,1.907,0,0,1,.638,1.549,1.985,1.985,0,0,1-.851,1.656L43.918,49.8a2.28,2.28,0,0,1-1.647.748A1.957,1.957,0,0,1,40.73,49.8L20.1,29.06a13.8,13.8,0,0,1-8.24.694,14.646,14.646,0,0,1-7.495-4.115A15.385,15.385,0,0,1,.222,17.568,13.55,13.55,0,0,1,1.5,8.747l9.994,9.836,6.8-6.842L8.514,1.905A14.211,14.211,0,0,1,17.233.783,14.952,14.952,0,0,1,25.313,4.9a14.768,14.768,0,0,1,4.093,7.536,13.64,13.64,0,0,1-.69,8.179Z" transform="translate(303.021 2749.453)" fill="#3ba755"/>
  </g>
</svg>
