<svg xmlns="http://www.w3.org/2000/svg" width="100" height="100" viewBox="0 0 100 100">
  <g id="Group_1" data-name="Group 1" transform="translate(-57 -2616)">
    <circle id="Ellipse_1" data-name="Ellipse 1" cx="50" cy="50" r="50" transform="translate(57 2616)" fill="#eceaf5"/>
    <path id="microscope" d="M50,20.379a15.759,15.759,0,0,1-4.714,11.077,28.73,28.73,0,0,1-12.321,7.437,16.575,16.575,0,0,1,6.34,3.184,5.915,5.915,0,0,1,2.373,4.5H8.323a5.345,5.345,0,0,1,1.463-3.548,12.318,12.318,0,0,1,4-2.911,39.513,39.513,0,0,1-7.542-2.275,2.857,2.857,0,0,1-1.528-1.137,3.108,3.108,0,0,1-.553-1.774,4.974,4.974,0,0,1-2.926-.864A2.5,2.5,0,0,1,0,32a2.44,2.44,0,0,1,1.235-2.047,5.073,5.073,0,0,1,2.926-.841H20.806a5.04,5.04,0,0,1,2.959.841A2.446,2.446,0,0,1,24.968,32a2.515,2.515,0,0,1-1.2,2.07,4.931,4.931,0,0,1-2.959.864,27.525,27.525,0,0,0,10.468-1.956,19.018,19.018,0,0,0,7.607-5.3,11.141,11.141,0,0,0,2.8-7.3,10.7,10.7,0,0,0-1.983-6.164,16.906,16.906,0,0,0-5.43-4.935l-3.577,3.911q0,.045-.065.069l-.065.023.584.228a3.2,3.2,0,0,1,2.016,1.774,2.066,2.066,0,0,1-.455,2.229l-6.63,7.232A4.419,4.419,0,0,1,23.44,26.11a5.749,5.749,0,0,1-3.283-.318l-7.542-2.911A3.2,3.2,0,0,1,10.6,21.107a2.066,2.066,0,0,1,.455-2.229l6.567-7.233a4.53,4.53,0,0,1,2.6-1.32,6.187,6.187,0,0,1,3.251.228L31.794,1.32A4.138,4.138,0,0,1,34.33.092a6.245,6.245,0,0,1,3.187.273,2.99,2.99,0,0,1,1.918,1.615A1.849,1.849,0,0,1,39.012,4l-.326.318a24.35,24.35,0,0,1,8.289,7.05A15.1,15.1,0,0,1,50,20.379Z" transform="translate(82 2642.999)" fill="#4b3c98"/>
  </g>
</svg>
