<svg xmlns="http://www.w3.org/2000/svg" width="100" height="100" viewBox="0 0 100 100">
  <g id="Group_2" data-name="Group 2" transform="translate(-377 -2584)">
    <circle id="Ellipse_4" data-name="Ellipse 4" cx="50" cy="50" r="50" transform="translate(377 2584)" fill="#feeeee"/>
    <path id="usfootball" d="M17.188,50A37.306,37.306,0,0,1,3.125,46.875,37.306,37.306,0,0,1,0,32.813,34.735,34.735,0,0,1,2.465,19.678,30.083,30.083,0,0,1,19.678,2.465,34.735,34.735,0,0,1,32.813,0,37.306,37.306,0,0,1,46.875,3.125,37.306,37.306,0,0,1,50,17.188a34.735,34.735,0,0,1-2.465,13.135,30.916,30.916,0,0,1-6.788,10.425,30.916,30.916,0,0,1-10.425,6.788A34.735,34.735,0,0,1,17.187,50ZM3.808,25.244a32.635,32.635,0,0,0-.683,6.592A26.793,26.793,0,0,0,3.857,37.6,32.327,32.327,0,0,0,12.4,46.142a26.794,26.794,0,0,0,5.761.732,32.635,32.635,0,0,0,6.592-.683A27.21,27.21,0,0,1,3.808,25.244Zm18.579-9.107a1.667,1.667,0,0,0-.512,1.221,1.705,1.705,0,0,0,.537,1.244l3.271,3.271-3.76,3.76L18.6,22.363a1.582,1.582,0,0,0-1.221-.538,1.655,1.655,0,0,0-1.244.538,1.749,1.749,0,0,0-.513,1.244,1.708,1.708,0,0,0,.538,1.244l3.271,3.271-3.76,3.76-3.321-3.271a1.582,1.582,0,0,0-1.221-.537,1.655,1.655,0,0,0-1.244.537,1.749,1.749,0,0,0-.512,1.244A1.708,1.708,0,0,0,9.912,31.1l3.271,3.271-.146.146a1.657,1.657,0,0,0-.489,1.221,1.694,1.694,0,0,0,.513,1.244,1.667,1.667,0,0,0,1.221.512,1.705,1.705,0,0,0,1.244-.537l.146-.1,3.271,3.222a1.582,1.582,0,0,0,1.221.537,1.755,1.755,0,0,0,1.76-1.753,1.578,1.578,0,0,0-.538-1.221l-3.271-3.271,3.808-3.76,3.271,3.271a1.657,1.657,0,0,0,1.221.489,1.752,1.752,0,0,0,1.758-1.758,1.573,1.573,0,0,0-.538-1.221l-3.271-3.271,3.808-3.76,3.271,3.271a1.657,1.657,0,0,0,1.221.489,1.752,1.752,0,0,0,1.758-1.758,1.573,1.573,0,0,0-.537-1.221l-3.271-3.271,3.76-3.808L37.7,21.387a1.657,1.657,0,0,0,1.221.489,1.75,1.75,0,0,0,1.757-1.76,1.577,1.577,0,0,0-.537-1.221l-3.271-3.271.146-.2a1.582,1.582,0,0,0,.537-1.221,1.75,1.75,0,0,0-1.757-1.757,1.582,1.582,0,0,0-1.221.538l-.2.146L31.1,9.864a1.657,1.657,0,0,0-1.221-.489,1.694,1.694,0,0,0-1.244.512,1.667,1.667,0,0,0-.512,1.221,1.705,1.705,0,0,0,.537,1.244l3.271,3.271-3.808,3.76-3.271-3.271a1.657,1.657,0,0,0-1.221-.489,1.694,1.694,0,0,0-1.244.513ZM46.143,12.4A32.31,32.31,0,0,0,37.6,3.857a26.793,26.793,0,0,0-5.761-.732,32.635,32.635,0,0,0-6.592.683A27.214,27.214,0,0,1,46.192,24.756a32.635,32.635,0,0,0,.683-6.592,26.793,26.793,0,0,0-.732-5.761Z" transform="translate(402 2609)" fill="#f65e5b"/>
  </g>
</svg>
